<svg xmlns="http://www.w3.org/2000/svg" version="1.0" preserveAspectRatio="xMidYMid meet" viewBox="436 177 669 633.9">

<g transform="translate(0.000000,1024.000000) scale(0.100000,-0.100000)" fill="#000000" stroke="none">
<path d="M7652 8323 c-23 -82 -50 -186 -62 -232 -25 -98 -172 -633 -194 -706 -8 -27 -13 -51 -11 -53 4 -4 180 109 261 169 l51 37 29 -22 c65 -51 276 -187 281 -182 3 2 -17 85 -45 183 -57 200 -137 497 -208 771 -26 100 -50 182 -54 182 -4 0 -26 -66 -48 -147z"/>
<path d="M6465 7843 c-14 -77 -44 -108 -120 -128 -30 -7 -30 -8 20 -24 57 -19 92 -61 102 -125 l6 -40 17 52 c22 67 52 99 108 115 l44 13 -43 13 c-60 18 -87 45 -105 108 -8 29 -17 53 -19 53 -1 0 -6 -17 -10 -37z"/>
<path d="M7215 7666 c-348 -89 -634 -250 -894 -501 -268 -259 -439 -552 -531 -909 -32 -124 -60 -307 -60 -395 l0 -58 -122 -6 c-146 -6 -198 -19 -198 -48 0 -27 49 -46 147 -60 43 -6 98 -14 122 -17 l45 -7 13 -90 c60 -423 203 -742 478 -1066 130 -153 357 -331 565 -442 76 -41 289 -134 348 -152 l22 -6 0 558 -1 559 25 54 c14 30 26 61 26 68 0 9 105 12 493 12 l494 0 12 -42 c7 -23 19 -52 27 -64 13 -19 15 -108 14 -583 0 -309 2 -561 5 -561 15 0 227 90 330 140 585 285 995 855 1079 1501 8 61 16 113 18 114 2 2 53 10 113 18 142 20 190 36 190 62 0 40 -58 49 -355 53 -270 4 -364 -4 -397 -30 -47 -38 27 -66 251 -94 l49 -6 -6 -76 c-23 -292 -170 -643 -382 -917 -83 -107 -249 -264 -365 -347 -79 -56 -333 -198 -354 -198 -3 0 -6 176 -6 390 0 215 1 390 3 390 1 0 27 -7 57 -15 71 -19 131 -19 205 0 233 61 371 295 310 530 -42 159 -150 274 -312 330 -81 28 -140 33 -421 34 l-212 1 61 77 c146 184 226 324 255 451 24 100 15 255 -19 350 -99 276 -348 451 -640 452 -302 0 -575 -207 -652 -497 -20 -75 -27 -203 -13 -273 25 -136 118 -305 264 -482 l65 -78 -188 -1 c-310 -1 -409 -10 -488 -48 -98 -45 -158 -94 -204 -162 -93 -139 -107 -329 -36 -469 91 -180 316 -273 503 -207 l42 15 0 -399 0 -399 -107 54 c-370 186 -648 465 -834 837 -92 183 -169 458 -169 599 l0 59 33 5 c131 17 241 37 258 47 65 34 -48 79 -203 80 l-98 1 0 56 c0 81 25 253 49 349 81 317 238 592 474 832 228 232 516 398 846 487 53 14 97 27 98 28 1 1 11 34 22 74 24 87 35 84 -144 38z m611 -875 c142 -55 236 -191 236 -341 0 -182 -147 -339 -335 -357 -213 -20 -408 166 -395 377 14 241 272 409 494 321z m756 -1132 c114 -24 219 -104 268 -204 21 -42 25 -64 24 -140 0 -111 -22 -163 -99 -233 -128 -118 -333 -108 -425 20 -75 104 -62 225 33 301 50 41 144 49 194 18 69 -43 90 -129 43 -175 -33 -32 -61 -38 -85 -20 -19 14 -19 16 -3 45 17 28 17 30 -2 49 -22 22 -54 17 -87 -13 -28 -25 -31 -83 -7 -128 18 -36 82 -68 134 -69 49 0 118 37 154 83 42 52 49 144 16 211 -56 116 -187 173 -324 142 -41 -10 -76 -12 -106 -6 -25 4 -373 7 -775 6 -716 -3 -731 -3 -770 -24 -80 -41 -134 -128 -135 -215 -1 -168 201 -260 310 -142 52 56 19 165 -51 165 -36 0 -51 -21 -47 -67 3 -34 0 -38 -22 -41 -39 -4 -75 39 -74 90 2 74 68 128 155 128 142 0 233 -182 155 -314 -112 -191 -408 -161 -513 52 -24 48 -28 70 -28 137 0 68 4 89 29 138 48 100 137 173 244 202 63 18 1713 21 1794 4z m-348 -239 c5 0 3 -7 -4 -15 -7 -9 -20 -38 -29 -65 l-16 -50 -455 0 c-250 0 -472 0 -492 0 -30 0 -38 4 -38 18 0 10 -11 39 -23 65 l-24 46 71 3 c39 2 280 2 536 0 256 -1 469 -2 474 -2z"/>
<path d="M8020 7688 c0 -5 7 -37 16 -72 l16 -63 101 -27 c56 -15 145 -44 197 -63 628 -234 1083 -807 1162 -1463 l13 -105 44 -3 c25 -2 55 -1 69 3 25 6 25 7 18 93 -4 48 -18 138 -32 201 -159 715 -716 1290 -1427 1472 -108 28 -177 38 -177 27z"/>
<path d="M9430 7422 c0 -11 -90 -105 -118 -124 l-24 -16 78 -76 77 -76 52 58 c29 31 64 63 77 71 l25 13 -80 79 c-82 81 -87 85 -87 71z"/>
<path d="M5712 7103 l-73 -75 33 -29 c18 -15 36 -28 39 -29 3 0 20 -20 39 -45 19 -25 36 -45 39 -45 3 0 19 18 35 39 15 22 48 54 72 71 l43 33 -70 67 c-38 37 -69 72 -69 79 0 20 -14 10 -88 -66z"/>
<path d="M8797 6950 c-16 -44 -25 -54 -60 -71 -23 -10 -52 -19 -64 -19 -37 0 -26 -18 15 -25 56 -9 91 -42 111 -104 l18 -55 12 49 c14 57 55 99 108 112 l38 10 -44 12 c-41 12 -91 52 -91 75 -1 6 -6 24 -13 39 l-12 28 -18 -51z"/>
<path d="M7663 5045 c-17 -8 -36 -22 -42 -34 -8 -13 -11 -239 -11 -723 l0 -704 45 -44 45 -44 41 40 41 41 -1 713 c-1 641 -2 715 -17 731 -26 29 -66 38 -101 24z"/>
<path d="M7985 5051 c-11 -5 -28 -17 -38 -28 -16 -18 -17 -62 -15 -671 l3 -651 83 60 82 60 0 585 c0 382 -4 592 -10 605 -10 18 -60 50 -77 48 -4 0 -17 -4 -28 -8z"/>
<path d="M7316 5019 l-26 -31 0 -551 c0 -304 3 -568 6 -587 5 -29 19 -45 83 -93 l76 -59 6 39 c3 21 6 314 5 651 l-1 614 -28 24 c-41 35 -88 32 -121 -7z"/>
<path d="M10396 3145 c-57 -20 -107 -65 -140 -126 -24 -44 -31 -69 -34 -136 l-4 -81 -52 -19 c-30 -11 -52 -25 -54 -35 -3 -14 6 -17 50 -20 l53 -3 0 -248 0 -249 -24 -19 c-13 -10 -34 -19 -47 -19 -17 0 -24 -6 -24 -20 0 -19 7 -20 170 -20 142 0 170 2 170 15 0 8 -17 19 -42 26 -24 6 -49 16 -55 21 -10 8 -13 72 -13 259 l0 249 94 0 c52 0 97 3 99 8 2 4 7 19 11 35 l6 27 -106 0 -107 0 6 100 c7 127 31 177 95 200 38 13 46 13 70 0 15 -9 38 -32 51 -53 27 -41 60 -49 99 -21 45 31 22 85 -51 120 -60 28 -157 32 -221 9z"/>
<path d="M8356 3134 c-192 -43 -333 -176 -381 -361 -30 -114 -15 -262 36 -374 39 -84 132 -178 213 -215 139 -63 339 -71 496 -18 l84 29 17 93 c22 127 12 129 -94 19 -90 -94 -116 -107 -218 -107 -215 0 -369 162 -386 404 -14 202 73 373 225 444 49 23 70 27 147 27 73 -1 99 -5 138 -24 53 -25 111 -88 129 -138 9 -25 18 -33 35 -33 l24 0 -7 103 c-4 56 -7 103 -8 104 -1 1 -42 14 -91 28 -115 33 -260 41 -359 19z"/>
<path d="M4360 3115 c0 -9 12 -18 30 -22 17 -3 39 -17 50 -31 19 -24 20 -42 20 -428 l0 -403 -26 -20 c-15 -12 -35 -21 -45 -21 -12 0 -19 -7 -19 -20 0 -19 7 -20 165 -20 180 0 202 8 123 45 l-43 20 -3 193 -2 192 43 0 c23 0 52 -7 65 -15 12 -9 74 -91 138 -183 64 -92 128 -179 142 -194 37 -40 103 -62 186 -62 64 -1 71 1 74 20 2 16 -5 23 -36 32 -51 15 -103 72 -224 243 -53 75 -104 144 -114 153 -20 20 -21 19 37 40 106 40 169 130 169 242 0 108 -53 184 -160 229 -40 17 -77 20 -307 23 -236 3 -263 2 -263 -13z m458 -70 c76 -33 113 -88 115 -175 1 -42 -5 -68 -24 -105 -35 -69 -89 -96 -209 -103 l-90 -5 0 202 0 201 85 0 c55 0 99 -6 123 -15z"/>
<path d="M6912 2915 c-30 -61 -87 -122 -128 -135 -22 -8 -34 -18 -34 -30 0 -15 9 -19 48 -22 l47 -3 5 -245 c5 -268 11 -294 68 -324 77 -40 200 -24 267 35 29 26 32 33 23 49 -11 17 -13 17 -52 -3 -56 -30 -111 -27 -145 7 l-26 26 -3 225 -3 225 100 0 c55 0 102 3 104 8 3 4 7 20 8 36 l4 29 -81 -2 c-44 -1 -93 1 -107 4 -26 7 -27 9 -27 86 0 76 -1 79 -23 79 -17 0 -28 -11 -45 -45z"/>
<path d="M10750 2909 c-32 -65 -79 -114 -125 -129 -23 -8 -35 -18 -35 -30 0 -15 9 -19 48 -22 l47 -3 2 -238 c2 -263 8 -292 67 -328 43 -26 121 -33 179 -15 55 16 117 60 117 82 0 19 -27 29 -43 16 -30 -24 -86 -34 -123 -22 -58 19 -64 46 -64 290 l0 210 63 1 c34 0 82 4 107 7 40 6 45 10 48 35 l3 27 -95 0 c-52 0 -101 3 -110 6 -13 5 -16 22 -16 85 0 75 -1 79 -22 79 -18 0 -29 -13 -48 -51z"/>
<path d="M5513 2810 c-179 -37 -283 -177 -271 -364 6 -94 38 -163 99 -221 63 -59 126 -86 215 -92 254 -18 428 212 349 461 -48 150 -228 250 -392 216z m148 -75 c65 -34 109 -127 114 -245 8 -176 -71 -299 -192 -300 -95 0 -156 66 -189 206 -26 112 4 252 68 311 56 52 131 63 199 28z"/>
<path d="M7513 2810 c-72 -15 -126 -45 -171 -94 -70 -76 -87 -124 -87 -241 0 -89 3 -107 29 -163 33 -72 77 -114 156 -151 45 -21 70 -25 141 -25 77 0 93 3 152 32 59 29 117 80 117 102 0 4 -6 13 -14 19 -10 8 -20 6 -40 -10 -15 -12 -49 -30 -77 -40 -90 -34 -175 -20 -241 39 -48 43 -74 96 -84 169 l-7 53 234 2 234 3 -1 55 c-1 65 -29 132 -70 174 -61 61 -181 94 -271 76z m133 -79 c36 -22 61 -69 68 -129 l5 -42 -160 0 c-128 0 -159 3 -159 14 0 24 30 99 48 119 50 58 139 74 198 38z"/>
<path d="M6125 2799 c-22 -4 -64 -8 -92 -8 -46 -1 -53 -4 -53 -21 0 -13 9 -22 25 -26 47 -12 50 -23 55 -258 5 -218 5 -222 32 -267 36 -61 87 -84 183 -83 77 0 127 20 189 75 l35 30 3 -48 3 -48 45 1 c25 0 71 4 103 8 68 9 74 26 20 53 l-38 18 -5 290 -5 290 -25 -2 c-175 -16 -185 -18 -185 -37 0 -14 10 -22 33 -28 21 -6 36 -18 42 -34 13 -34 13 -319 0 -366 -33 -116 -224 -153 -278 -53 -14 25 -18 70 -20 278 -3 181 -7 247 -15 246 -7 -1 -30 -5 -52 -10z"/>
<path d="M9079 2805 c-3 -2 -41 -11 -85 -18 -56 -9 -80 -18 -82 -29 -2 -10 7 -17 26 -21 61 -12 62 -16 62 -271 0 -252 -2 -260 -55 -274 -17 -5 -31 -16 -33 -25 -3 -15 13 -17 163 -17 152 0 166 2 163 17 -2 10 -17 20 -36 24 -69 14 -72 22 -72 217 0 161 2 177 22 213 12 22 32 46 46 55 35 23 98 20 134 -6 l30 -22 20 20 c11 11 24 39 29 63 11 59 -11 79 -85 79 -42 0 -62 -6 -100 -31 -26 -17 -58 -48 -72 -68 l-24 -36 0 68 c0 64 -1 67 -23 67 -13 0 -26 -2 -28 -5z"/>
<path d="M9603 2789 c-76 -24 -123 -65 -123 -107 0 -37 23 -62 55 -62 18 0 30 12 51 50 22 40 36 53 71 66 77 30 151 -6 172 -83 10 -35 15 -123 8 -123 -33 0 -254 -53 -284 -68 -78 -40 -112 -105 -100 -194 19 -141 203 -181 347 -77 23 17 43 29 43 27 26 -53 37 -64 71 -75 61 -21 167 15 153 52 -4 9 -19 15 -41 15 -19 0 -38 6 -43 13 -4 6 -10 113 -13 237 -6 265 -10 277 -99 323 -46 23 -67 27 -130 26 -46 0 -100 -8 -138 -20z m235 -405 l-3 -97 -36 -29 c-38 -31 -99 -45 -143 -34 -91 23 -88 153 4 201 24 13 151 52 173 54 4 1 6 -42 5 -95z"/>
</g>
</svg>