<svg xmlns="http://www.w3.org/2000/svg" version="1.0" preserveAspectRatio="xMidYMid meet" viewBox="541 177 457 497.5">

<g transform="translate(0.000000,1024.000000) scale(0.100000,-0.100000)" fill="#000000" stroke="none">
<path d="M7682 8433 c-6 -21 -38 -139 -71 -263 -79 -302 -209 -774 -222 -807 -5 -14 -7 -28 -5 -31 6 -5 292 184 302 199 3 5 33 -10 67 -34 124 -88 249 -169 254 -163 3 3 -20 94 -50 203 -89 316 -247 911 -247 929 0 2 -4 4 -8 4 -5 0 -14 -17 -20 -37z"/>
<path d="M6467 7840 c-12 -62 -41 -96 -98 -117 l-52 -20 45 -11 c57 -14 84 -44 101 -112 l14 -55 8 35 c18 81 50 116 135 143 9 3 4 7 -15 12 -72 18 -82 29 -122 135 -10 24 -10 24 -16 -10z"/>
<path d="M7330 7693 c-72 -13 -236 -59 -320 -90 -622 -231 -1092 -767 -1234 -1404 -14 -63 -28 -143 -32 -179 -4 -36 -8 -72 -10 -80 -1 -8 -3 -43 -3 -76 l-1 -61 -122 -6 c-146 -6 -198 -19 -198 -48 0 -33 82 -58 251 -74 l66 -6 7 -66 c11 -104 53 -300 86 -402 158 -477 497 -882 942 -1124 62 -34 316 -146 366 -161 l22 -7 0 558 -1 559 25 54 c14 30 26 61 26 68 0 9 105 12 493 12 l494 0 12 -42 c7 -23 19 -52 27 -64 13 -19 15 -108 14 -583 0 -309 2 -561 5 -561 12 0 218 86 309 129 343 162 661 454 848 777 134 234 235 536 256 769 l7 80 45 7 c246 40 270 46 270 73 0 19 -14 26 -84 41 -79 17 -547 19 -614 3 -79 -20 -90 -38 -41 -68 27 -17 79 -27 232 -46 l47 -6 0 -43 c0 -61 -26 -205 -56 -309 -52 -184 -133 -357 -252 -537 -97 -148 -289 -344 -445 -453 -88 -62 -329 -197 -351 -197 -3 0 -6 176 -6 390 0 215 1 390 3 390 1 0 18 -5 37 -10 152 -45 321 0 429 115 196 207 141 552 -111 699 -99 57 -141 64 -445 72 l-281 7 70 89 c207 266 266 410 255 621 -9 170 -72 304 -205 435 -77 75 -210 145 -322 168 -105 22 -249 14 -357 -20 -186 -60 -350 -218 -416 -401 -99 -278 -31 -507 251 -842 l44 -53 -29 -1 c-15 -1 -144 -3 -286 -5 -221 -3 -265 -7 -315 -23 -207 -70 -332 -238 -332 -446 1 -202 119 -363 308 -419 62 -18 177 -15 240 7 l42 15 0 -399 0 -398 -47 22 c-389 181 -702 485 -893 866 -91 183 -170 460 -170 600 l0 60 33 5 c17 2 70 10 117 16 157 22 192 47 116 84 -29 14 -71 21 -155 25 l-116 6 -3 35 c-6 51 16 230 40 335 150 658 688 1198 1355 1360 l71 17 16 64 c18 71 19 85 9 83 -5 -1 -19 -4 -33 -6z m431 -883 c154 -29 267 -145 299 -306 26 -132 -44 -279 -171 -360 -177 -112 -429 -35 -525 162 -25 52 -29 70 -29 149 0 80 3 96 29 144 59 113 155 188 269 211 59 11 68 11 128 0z m901 -1177 c85 -40 147 -97 184 -170 26 -51 29 -68 29 -148 0 -106 -19 -156 -82 -221 -55 -57 -124 -88 -203 -92 -118 -7 -204 35 -256 124 -36 61 -40 160 -9 213 66 111 213 137 286 51 51 -60 45 -124 -13 -160 -39 -24 -38 -23 -63 -4 -19 14 -19 16 -4 43 22 38 8 61 -35 61 -79 0 -106 -99 -43 -165 64 -69 166 -70 243 -3 44 39 64 86 64 152 -1 68 -27 123 -83 173 -61 53 -114 67 -219 60 -46 -3 -391 -5 -768 -4 -377 1 -730 2 -785 2 -116 0 -160 -17 -217 -85 -121 -140 -37 -350 139 -350 43 0 102 31 123 65 42 69 9 154 -61 155 -37 0 -52 -21 -44 -64 7 -32 5 -36 -20 -42 -21 -5 -32 -1 -52 18 -47 47 -29 131 37 176 29 20 45 23 95 20 49 -3 68 -9 98 -33 52 -41 80 -103 80 -175 0 -213 -289 -310 -461 -155 -111 100 -140 262 -70 398 25 50 99 122 152 149 91 47 81 47 1011 45 l880 -2 67 -32z m-422 -213 c0 -3 -4 -10 -10 -16 -5 -5 -18 -33 -28 -62 l-17 -52 -490 -1 -489 0 -17 50 c-9 28 -21 57 -28 65 -10 12 -8 15 11 19 36 7 1068 5 1068 -3z"/>
<path d="M8020 7688 c0 -6 8 -38 17 -73 l17 -63 55 -12 c83 -19 275 -86 369 -130 476 -223 835 -640 981 -1140 32 -109 61 -268 61 -332 0 -34 2 -38 35 -44 19 -3 51 -3 71 1 l37 6 -7 82 c-21 256 -128 571 -275 807 -263 422 -689 739 -1167 866 -120 32 -194 44 -194 32z"/>
<path d="M9430 7423 c0 -11 -90 -106 -118 -125 l-24 -16 76 -75 76 -74 77 75 76 76 -23 15 c-25 17 -100 94 -113 117 -8 15 -27 19 -27 7z"/>
<path d="M5712 7102 l-73 -73 28 -22 c38 -29 86 -77 106 -107 l17 -24 17 24 c20 29 79 89 109 110 20 15 18 17 -55 90 l-76 75 -73 -73z"/>
<path d="M8797 6950 c-16 -44 -25 -54 -60 -71 -23 -10 -52 -19 -64 -19 -37 0 -26 -18 16 -25 57 -9 100 -50 115 -110 l13 -50 12 52 c15 61 52 98 107 109 l36 7 -52 21 c-52 21 -67 38 -92 104 l-13 33 -18 -51z"/>
<path d="M7663 5045 c-17 -8 -36 -22 -42 -34 -8 -13 -11 -239 -11 -723 l0 -704 46 -44 46 -45 41 48 41 48 -1 705 c-1 647 -3 707 -18 724 -27 30 -67 40 -102 25z"/>
<path d="M7985 5051 c-11 -5 -28 -17 -38 -28 -16 -18 -17 -62 -15 -670 l3 -651 80 57 80 57 3 580 c1 318 0 589 -3 602 -3 12 -20 31 -38 42 -35 22 -42 23 -72 11z"/>
<path d="M7319 5021 l-29 -29 0 -560 c0 -308 3 -572 6 -588 8 -37 153 -152 166 -132 4 7 8 291 8 631 0 510 -2 624 -14 652 -26 62 -89 74 -137 26z"/>
</g>
</svg>